<mxfile host="app.diagrams.net" modified="2022-09-19T12:43:29.807Z" agent="5.0 (Windows NT 10.0; Win64; x64) AppleWebKit/537.36 (KHTML, like Gecko) Chrome/105.0.0.0 Safari/537.36" etag="Khd0HF-pMqYcf9aPdvYY" version="20.3.2" type="github">
  <diagram id="C5RBs43oDa-KdzZeNtuy" name="Page-1">
    <mxGraphModel dx="1085" dy="603" grid="1" gridSize="10" guides="1" tooltips="1" connect="1" arrows="1" fold="1" page="1" pageScale="1" pageWidth="827" pageHeight="1169" math="0" shadow="0">
      <root>
        <mxCell id="WIyWlLk6GJQsqaUBKTNV-0" />
        <mxCell id="WIyWlLk6GJQsqaUBKTNV-1" parent="WIyWlLk6GJQsqaUBKTNV-0" />
        <mxCell id="JIHfX_VcqTOeHStxhTok-3" value="deklarasi variabel :&lt;br&gt;panjang, lebar, luas" style="rounded=0;whiteSpace=wrap;html=1;" vertex="1" parent="WIyWlLk6GJQsqaUBKTNV-1">
          <mxGeometry x="344" y="140" width="140" height="60" as="geometry" />
        </mxCell>
        <mxCell id="JIHfX_VcqTOeHStxhTok-6" value="" style="endArrow=classic;html=1;rounded=0;entryX=0.5;entryY=0;entryDx=0;entryDy=0;exitX=0.5;exitY=1;exitDx=0;exitDy=0;exitPerimeter=0;" edge="1" parent="WIyWlLk6GJQsqaUBKTNV-1" target="JIHfX_VcqTOeHStxhTok-3">
          <mxGeometry width="50" height="50" relative="1" as="geometry">
            <mxPoint x="414" y="99.99999999999989" as="sourcePoint" />
            <mxPoint x="454" y="90" as="targetPoint" />
          </mxGeometry>
        </mxCell>
        <mxCell id="JIHfX_VcqTOeHStxhTok-7" value="input nilai&lt;br&gt;panjang : 6&lt;br&gt;lebar: 2" style="shape=parallelogram;perimeter=parallelogramPerimeter;whiteSpace=wrap;html=1;fixedSize=1;" vertex="1" parent="WIyWlLk6GJQsqaUBKTNV-1">
          <mxGeometry x="339" y="230" width="150" height="60" as="geometry" />
        </mxCell>
        <mxCell id="JIHfX_VcqTOeHStxhTok-8" value="" style="endArrow=classic;html=1;rounded=0;exitX=0.5;exitY=1;exitDx=0;exitDy=0;entryX=0.5;entryY=0;entryDx=0;entryDy=0;" edge="1" parent="WIyWlLk6GJQsqaUBKTNV-1" source="JIHfX_VcqTOeHStxhTok-3" target="JIHfX_VcqTOeHStxhTok-7">
          <mxGeometry width="50" height="50" relative="1" as="geometry">
            <mxPoint x="404" y="230" as="sourcePoint" />
            <mxPoint x="454" y="180" as="targetPoint" />
          </mxGeometry>
        </mxCell>
        <mxCell id="JIHfX_VcqTOeHStxhTok-9" value="luas = panjang x lebar&lt;br&gt;luas = 6 x 2" style="rounded=0;whiteSpace=wrap;html=1;" vertex="1" parent="WIyWlLk6GJQsqaUBKTNV-1">
          <mxGeometry x="339" y="330" width="150" height="60" as="geometry" />
        </mxCell>
        <mxCell id="JIHfX_VcqTOeHStxhTok-10" value="" style="endArrow=classic;html=1;rounded=0;exitX=0.5;exitY=1;exitDx=0;exitDy=0;entryX=0.5;entryY=0;entryDx=0;entryDy=0;" edge="1" parent="WIyWlLk6GJQsqaUBKTNV-1" source="JIHfX_VcqTOeHStxhTok-7" target="JIHfX_VcqTOeHStxhTok-9">
          <mxGeometry width="50" height="50" relative="1" as="geometry">
            <mxPoint x="584" y="220" as="sourcePoint" />
            <mxPoint x="634" y="170" as="targetPoint" />
          </mxGeometry>
        </mxCell>
        <mxCell id="JIHfX_VcqTOeHStxhTok-11" value="luas = 12" style="shape=parallelogram;perimeter=parallelogramPerimeter;whiteSpace=wrap;html=1;fixedSize=1;" vertex="1" parent="WIyWlLk6GJQsqaUBKTNV-1">
          <mxGeometry x="334" y="430" width="160" height="50" as="geometry" />
        </mxCell>
        <mxCell id="JIHfX_VcqTOeHStxhTok-12" value="" style="endArrow=classic;html=1;rounded=0;exitX=0.5;exitY=1;exitDx=0;exitDy=0;entryX=0.5;entryY=0;entryDx=0;entryDy=0;" edge="1" parent="WIyWlLk6GJQsqaUBKTNV-1" source="JIHfX_VcqTOeHStxhTok-9" target="JIHfX_VcqTOeHStxhTok-11">
          <mxGeometry width="50" height="50" relative="1" as="geometry">
            <mxPoint x="390" y="250" as="sourcePoint" />
            <mxPoint x="450" y="220" as="targetPoint" />
          </mxGeometry>
        </mxCell>
        <mxCell id="JIHfX_VcqTOeHStxhTok-14" value="END" style="ellipse;whiteSpace=wrap;html=1;" vertex="1" parent="WIyWlLk6GJQsqaUBKTNV-1">
          <mxGeometry x="368.5" y="520" width="91" height="50" as="geometry" />
        </mxCell>
        <mxCell id="JIHfX_VcqTOeHStxhTok-15" value="START" style="ellipse;whiteSpace=wrap;html=1;" vertex="1" parent="WIyWlLk6GJQsqaUBKTNV-1">
          <mxGeometry x="362" y="40" width="104" height="60" as="geometry" />
        </mxCell>
        <mxCell id="JIHfX_VcqTOeHStxhTok-16" value="" style="endArrow=classic;html=1;rounded=0;exitX=0.5;exitY=1;exitDx=0;exitDy=0;entryX=0.5;entryY=0;entryDx=0;entryDy=0;" edge="1" parent="WIyWlLk6GJQsqaUBKTNV-1" source="JIHfX_VcqTOeHStxhTok-11" target="JIHfX_VcqTOeHStxhTok-14">
          <mxGeometry width="50" height="50" relative="1" as="geometry">
            <mxPoint x="350" y="320" as="sourcePoint" />
            <mxPoint x="400" y="270" as="targetPoint" />
          </mxGeometry>
        </mxCell>
      </root>
    </mxGraphModel>
  </diagram>
</mxfile>
